<svg xmlns="http://www.w3.org/2000/svg" xmlns:xlink="http://www.w3.org/1999/xlink" version="1.1" x="0px" y="0px" viewBox="0 0 512 640" style="enable-background:new 0 0 512 512;" xml:space="preserve"><title>Cool-Emoji-Emotion-Face-Expression-Feeling</title><g><path d="M511.8,361.1c0-53.2-9.2-99.5-27.3-138.6c5.6-32.6,13.2-110.5-21.4-195.6c-4.1-10.1-15.3-15.2-25.6-11.5   c-11.7,4.2-70.4,27.1-113.1,77.9c-36.8-9.7-65.1-9.5-68.4-9.5c-3.3-0.1-31.6-0.2-68.4,9.5C144.9,42.5,86.2,19.6,74.5,15.4   c-2.6-0.9-5.2-1.3-7.8-1.2c0,0,0,0,0,0c-0.2,0-0.3,0-0.5,0c-7.5,0.5-14.4,5.2-17.3,12.6c0,0,0,0,0,0c0,0,0,0,0,0c0,0,0,0,0,0   c-34.5,85.1-27,163-21.4,195.6C9.3,261.6,0.2,308,0.2,361.1c0,0.1,0,0.1,0,0.2c0,2.4,1,4.7,2.6,6.5c0.4,0.4,3.4,3.7,8.7,8.9   c0.1,0.1,0.2,0.2,0.3,0.3c0.3,0.3,0.5,0.5,0.8,0.8c0.4,0.4,0.7,0.7,1.1,1.1c0.1,0.1,0.2,0.1,0.2,0.2c12.5,12.2,35,32.7,64.5,53.4   c42.4,29.7,107.6,65.1,177.6,65.1c68.6,0,132.5-34,174.9-63.3c0,0,0.1,0,0.1-0.1c0.5-0.4,1.1-0.7,1.6-1.1c0.3-0.2,0.7-0.4,1-0.7   c0.3-0.2,0.5-0.4,0.8-0.6c0.7-0.5,1.4-1,2.1-1.5c0.9-0.6,1.7-1.2,2.6-1.8c0.4-0.3,0.8-0.6,1.2-0.9c1.1-0.8,2.2-1.6,3.3-2.4   c0.2-0.1,0.3-0.2,0.5-0.3c24.3-18,42.9-35,54-45.8c0.1-0.1,0.2-0.2,0.3-0.3c0.3-0.3,0.7-0.7,1-1c0.3-0.3,0.6-0.6,0.9-0.9   c0.1-0.1,0.1-0.1,0.2-0.2c5.3-5.3,8.4-8.6,8.7-9c1.6-1.8,2.5-4.1,2.6-6.5C511.8,361.3,511.8,361.2,511.8,361.1z M463.7,225.5   c0.4,0.8,0.8,1.5,1.1,2.3c0.5,1,0.9,2,1.4,3c-2-1.1-4-2.2-6-3.2c0.2-2.6,0.4-5.2,0.5-7.6C461.8,221.8,462.8,223.7,463.7,225.5z    M440.2,228.1L440.2,228.1c-1.7,16.6-6.5,39.9-20,56.5c-10.2,12.6-23.7,19.6-41.3,21.4c-28.4,2.9-51.3-3-67.9-17.3   c-12.2-10.5-19.4-24.2-23.7-36.2l-4.2-19.6L441,206C441.2,213.4,440.9,220.8,440.2,228.1z M62.8,46.7   c14.1,11.5,40.4,35.7,62.2,71.5c-2.6,1.5-5.3,3-7.9,4.5c-2.7,1.6-4.3,4.2-4.7,7.1c0,0,0,0,0,0c0,0.2-0.1,0.5-0.1,0.7   c0,0.1,0,0.2,0,0.2c0,0.2,0,0.3,0,0.5c0,0.2,0,0.3,0,0.5c0,0.1,0,0.2,0,0.3c0,0.2,0,0.5,0.1,0.7c0,0,0,0,0,0.1   c0.2,1.3,0.6,2.5,1.3,3.7c0.2,0.4,0.5,0.7,0.8,1.1c0,0,0.1,0.1,0.1,0.1c0.2,0.3,0.5,0.6,0.8,0.8c0,0,0.1,0.1,0.1,0.1   c0.6,0.6,1.3,1.1,2,1.5c0,0,0,0,0,0c0.4,0.2,0.7,0.4,1.1,0.5c0,0,0,0,0,0c1.2,0.5,2.4,0.7,3.7,0.7c0,0,0,0,0,0c0,0,0,0,0,0   c0.9,0,1.7-0.1,2.6-0.4c0,0,0,0,0,0c0.4-0.1,0.8-0.3,1.2-0.4c0,0,0,0,0,0c0.4-0.2,0.8-0.4,1.2-0.6c7.7-4.6,15.6-8.7,23.7-12.4   c0.7-0.3,1.4-0.6,2.1-0.9c0.4-0.2,0.8-0.3,1.2-0.5c0.1,0,0.2-0.1,0.3-0.1c1.1-0.5,2.1-0.9,3.2-1.4c1.3-0.5,2.5-1,3.8-1.5   c0.2-0.1,0.4-0.1,0.5-0.2c49.3-19.5,93.1-18.9,93.6-18.9c0.1,0,0.3,0,0.4,0c0.5,0,44.4-0.6,93.7,18.9c0.1,0,0.2,0.1,0.2,0.1   c1.4,0.5,2.7,1.1,4.1,1.7c1,0.4,2,0.8,3,1.3c0.2,0.1,0.3,0.1,0.5,0.2c0.4,0.2,0.8,0.3,1.1,0.5c0.7,0.3,1.3,0.6,2,0.9   c8.1,3.7,16.1,7.9,23.8,12.5c4.7,2.8,10.9,1.3,13.7-3.5c0.7-1.1,1.1-2.4,1.3-3.6c0,0,0-0.1,0-0.1c0-0.2,0-0.4,0.1-0.6   c0-0.1,0-0.2,0-0.3c0-0.1,0-0.3,0-0.4c0-0.2,0-0.4,0-0.5c0-0.1,0-0.1,0-0.2c-0.2-3.1-1.9-6.1-4.8-7.8c-2.6-1.6-5.2-3.1-7.9-4.5   c21.8-35.8,48.1-60,62.2-71.5c20.9,58,21.9,111.4,18.9,146.3c-5.3-8.1-11-15.7-17.2-23c-3.6-4.2-9.9-4.7-14.1-1.1   c-0.2,0.1-0.3,0.3-0.5,0.5c-3.7,3.6-4.1,9.6-0.6,13.6c0.9,1.1,1.8,2.1,2.6,3.2L373,197.3c-50.8-9.1-74.2,2.8-83.9,11.1   c-1.5,1.2-2.9,2.5-4.2,3.9l-14.7,2.5h-27.1l-16.3-2.8c-1.3-1.3-2.6-2.5-3.9-3.6c-9.6-8.3-32.9-20.2-83.2-11.2l-65.8-11.2   c0.8-1,1.6-2,2.5-3c0.1-0.1,0.2-0.3,0.3-0.4c3.4-4.2,2.9-10.4-1.2-13.9c-4.2-3.6-10.5-3.1-14.1,1.1c-6.3,7.3-12.1,15.1-17.4,23.2   C40.9,158.1,41.8,104.7,62.8,46.7z M264.2,245.5H249c1-4,1.7-7.7,2.1-10.7h11C262.6,237.8,263.3,241.4,264.2,245.5z M230.2,232.9   l-4.3,20c-4.3,11.9-11.5,25.3-23.5,35.7c-16.7,14.4-39.5,20.3-68,17.4c-17.6-1.8-31.1-8.8-41.3-21.4C73.9,261,71.9,224,72.2,206   L230.2,232.9z M47.2,227.6c0.1-0.3,0.3-0.5,0.4-0.8c1.4-2.9,2.9-5.8,4.5-8.7c0.1-0.1,0.1-0.3,0.2-0.4c0.1,2.9,0.3,6,0.6,9.2   c-2.4,1.2-4.8,2.5-7.1,3.8C46.2,229.7,46.7,228.6,47.2,227.6z M94.7,419.6c-9.6-26.7,31.2-56.3,70.7-85c6-4.3,11.9-8.7,17.7-13   c12.1-3.8,23-9.8,32.4-17.9c13.1-11.4,21.6-25.3,27-38.3h28.2c5.4,13,13.9,26.9,27,38.3c8.8,7.6,18.8,13.3,30,17.2   c6.1,4.6,12.4,9.1,18.8,13.7c39.5,28.6,80.3,58.3,70.8,85c-70.2,48-126.3,58.2-161.3,58.2C193.7,477.8,134.6,446.9,94.7,419.6z"/><path d="M334,372.1c-37.2,15-60.5-6.9-67.2-14.5V353c3.3-1.8,7.7-4.4,12.2-7.4c14.4-9.6,21.1-18.1,21.1-26.8   c0-5.8-2.2-16.1-16.9-20.6c-7.6-2.3-17.2-2.6-26.4-2.6c-9.3,0-18.9,0.3-26.4,2.6c-14.7,4.4-16.9,14.8-16.9,20.6   c0,8.7,6.7,17.2,21.1,26.8c4.4,3,8.8,5.5,12.2,7.4v4.6c-6.7,7.6-30,29.4-67.2,14.5c-5.1-2.1-10.9,0.4-13,5.5   c-2.1,5.1,0.4,10.9,5.5,13c11.8,4.8,22.6,6.6,32.2,6.6c15.1,0,27.4-4.6,36.3-9.5c6.8-3.8,12.2-8.1,16.2-11.9   c4,3.8,9.4,8.1,16.2,11.9c8.8,4.9,21.1,9.5,36.3,9.5c9.6,0,20.4-1.8,32.2-6.6c5.1-2.1,7.6-7.9,5.5-13   C344.9,372.5,339.1,370,334,372.1z"/></g><text x="0" y="527" fill="#000000" font-size="5px" font-weight="bold" font-family="'Helvetica Neue', Helvetica, Arial-Unicode, Arial, Sans-serif">Created by AomAm</text><text x="0" y="532" fill="#000000" font-size="5px" font-weight="bold" font-family="'Helvetica Neue', Helvetica, Arial-Unicode, Arial, Sans-serif">from the Noun Project</text></svg>